<?xml version="1.0" encoding="UTF-8" standalone="no"?><!DOCTYPE svg PUBLIC "-//W3C//DTD SVG 1.1//EN" "http://www.w3.org/Graphics/SVG/1.1/DTD/svg11.dtd"><svg width="100%" height="100%" viewBox="0 0 340 60" version="1.1" xmlns="http://www.w3.org/2000/svg" xmlns:xlink="http://www.w3.org/1999/xlink" xml:space="preserve" xmlns:serif="http://www.serif.com/" style="fill-rule:evenodd;clip-rule:evenodd;"><path d="M74.217,51.563l0,1.01l-7.222,0l0,-11.435l6.868,0l0,1.01l-5.496,0l0,3.866l4.791,0l0,1.01l-4.791,0l0,4.539l5.85,0Z" style="fill:#454545;fill-rule:nonzero;"/><path d="M83.517,52.824c-1.293,0 -2.385,-0.273 -3.278,-0.822c-0.892,-0.55 -1.559,-1.279 -2,-2.186c-0.439,-0.909 -0.658,-1.901 -0.658,-2.977c0,-1.077 0.231,-2.064 0.695,-2.96c0.465,-0.897 1.158,-1.614 2.08,-2.152c0.921,-0.537 2.045,-0.806 3.372,-0.806c0.799,0 1.55,0.129 2.254,0.386c0.705,0.257 1.293,0.621 1.762,1.093l-0.651,0.841c-0.376,-0.393 -0.87,-0.706 -1.481,-0.941c-0.611,-0.235 -1.239,-0.353 -1.884,-0.353c-1.011,0 -1.874,0.214 -2.59,0.64c-0.716,0.425 -1.259,1.011 -1.63,1.756c-0.37,0.744 -0.554,1.582 -0.554,2.512c0,0.954 0.175,1.804 0.528,2.549c0.353,0.744 0.87,1.333 1.551,1.766c0.681,0.431 1.509,0.647 2.484,0.647c1.48,0 2.76,-0.578 3.84,-1.733l0.598,0.825c-0.528,0.559 -1.168,1.018 -1.92,1.377c-0.75,0.359 -1.59,0.538 -2.518,0.538Z" style="fill:#454545;fill-rule:nonzero;"/><path d="M96.91,52.841c-1.234,0 -2.282,-0.266 -3.145,-0.798c-0.864,-0.532 -1.516,-1.25 -1.956,-2.151c-0.44,-0.903 -0.659,-1.903 -0.659,-3.002c0,-1.098 0.219,-2.101 0.659,-3.009c0.44,-0.909 1.092,-1.629 1.956,-2.161c0.863,-0.532 1.911,-0.799 3.145,-0.799c1.221,0 2.266,0.267 3.135,0.799c0.87,0.532 1.524,1.249 1.963,2.152c0.441,0.901 0.661,1.896 0.661,2.983c0,1.11 -0.22,2.119 -0.661,3.028c-0.439,0.907 -1.093,1.628 -1.963,2.16c-0.869,0.532 -1.914,0.798 -3.135,0.798Zm0,-1.024c0.916,0 1.706,-0.213 2.37,-0.638c0.663,-0.426 1.165,-1.015 1.506,-1.766c0.34,-0.751 0.51,-1.599 0.51,-2.542c0,-0.941 -0.17,-1.784 -0.51,-2.528c-0.341,-0.745 -0.843,-1.331 -1.506,-1.756c-0.664,-0.426 -1.454,-0.64 -2.37,-0.64c-0.917,0 -1.707,0.214 -2.37,0.64c-0.664,0.425 -1.166,1.011 -1.506,1.756c-0.341,0.744 -0.511,1.587 -0.511,2.528c0,0.943 0.17,1.791 0.511,2.542c0.34,0.751 0.842,1.34 1.506,1.766c0.663,0.425 1.453,0.638 2.37,0.638Z" style="fill:#454545;fill-rule:nonzero;"/><path d="M118.32,41.138l0,11.435l-1.356,0l0,-4.153l0.054,-5.112l-3.893,5.431l-0.881,0l-3.893,-5.447l0.053,5.128l0,4.153l-1.356,0l0,-11.435l1.199,0l4.437,6.189l4.44,-6.189l1.196,0Z" style="fill:#454545;fill-rule:nonzero;"/><path d="M134.951,41.138l0,11.435l-1.356,0l0,-4.153l0.054,-5.112l-3.893,5.431l-0.881,0l-3.893,-5.447l0.053,5.128l0,4.153l-1.356,0l0,-11.435l1.198,0l4.438,6.189l4.44,-6.189l1.196,0Z" style="fill:#454545;fill-rule:nonzero;"/><path d="M147.532,51.563l0,1.01l-7.222,0l0,-11.435l6.868,0l0,1.01l-5.495,0l0,3.866l4.791,0l0,1.01l-4.791,0l0,4.539l5.849,0Z" style="fill:#454545;fill-rule:nonzero;"/><path d="M155.528,47.394l-2.237,0l0,5.179l-1.373,0l0,-11.435l3.893,0c1.303,0 2.3,0.281 2.992,0.841c0.694,0.561 1.041,1.312 1.041,2.253c0,0.818 -0.243,1.489 -0.731,2.011c-0.488,0.521 -1.201,0.854 -2.14,1.001l4,5.329l-1.586,0l-3.859,-5.179Zm-2.237,-1.01l2.52,0c1.772,0 2.658,-0.705 2.658,-2.117c0,-0.662 -0.229,-1.181 -0.687,-1.555c-0.457,-0.376 -1.114,-0.564 -1.971,-0.564l-2.52,0l0,4.236Z" style="fill:#454545;fill-rule:nonzero;"/><path d="M169.989,52.824c-1.293,0 -2.386,-0.273 -3.278,-0.822c-0.893,-0.55 -1.559,-1.279 -2,-2.186c-0.439,-0.909 -0.658,-1.901 -0.658,-2.977c0,-1.077 0.231,-2.064 0.695,-2.96c0.464,-0.897 1.157,-1.614 2.079,-2.152c0.921,-0.537 2.046,-0.806 3.373,-0.806c0.799,0 1.55,0.129 2.254,0.386c0.705,0.257 1.292,0.621 1.762,1.093l-0.651,0.841c-0.377,-0.393 -0.871,-0.706 -1.482,-0.941c-0.61,-0.235 -1.238,-0.353 -1.883,-0.353c-1.011,0 -1.874,0.214 -2.591,0.64c-0.715,0.425 -1.258,1.011 -1.629,1.756c-0.37,0.744 -0.555,1.582 -0.555,2.512c0,0.954 0.176,1.804 0.528,2.549c0.354,0.744 0.871,1.333 1.552,1.766c0.681,0.431 1.509,0.647 2.484,0.647c1.48,0 2.76,-0.578 3.84,-1.733l0.598,0.825c-0.528,0.559 -1.169,1.018 -1.92,1.377c-0.751,0.359 -1.59,0.538 -2.518,0.538Z" style="fill:#454545;fill-rule:nonzero;"/><path d="M185.865,51.563l0,1.01l-7.222,0l0,-11.435l6.869,0l0,1.01l-5.496,0l0,3.866l4.791,0l0,1.01l-4.791,0l0,4.539l5.849,0Z" style="fill:#454545;fill-rule:nonzero;"/><path d="M202.053,48.873l-4.932,0l-1.445,3.7l-1.356,0l4.651,-11.585l1.249,0l4.668,11.585l-1.39,0l-1.445,-3.7Zm-0.405,-1.008l-2.062,-5.28l-2.078,5.28l4.14,0Z" style="fill:#454545;fill-rule:nonzero;"/><path d="M213.531,52.824c-1.293,0 -2.386,-0.273 -3.278,-0.822c-0.893,-0.55 -1.559,-1.279 -2,-2.186c-0.439,-0.909 -0.658,-1.901 -0.658,-2.977c0,-1.077 0.231,-2.064 0.695,-2.96c0.464,-0.897 1.158,-1.614 2.079,-2.152c0.921,-0.537 2.046,-0.806 3.373,-0.806c0.799,0 1.55,0.129 2.254,0.386c0.705,0.257 1.292,0.621 1.762,1.093l-0.651,0.841c-0.377,-0.393 -0.871,-0.706 -1.482,-0.941c-0.61,-0.235 -1.238,-0.353 -1.883,-0.353c-1.011,0 -1.874,0.214 -2.591,0.64c-0.715,0.425 -1.258,1.011 -1.629,1.756c-0.37,0.744 -0.555,1.582 -0.555,2.512c0,0.954 0.176,1.804 0.528,2.549c0.354,0.744 0.871,1.333 1.552,1.766c0.681,0.431 1.509,0.647 2.484,0.647c1.48,0 2.76,-0.578 3.84,-1.733l0.598,0.825c-0.528,0.559 -1.168,1.018 -1.92,1.377c-0.751,0.359 -1.59,0.538 -2.518,0.538Z" style="fill:#454545;fill-rule:nonzero;"/><path d="M227.1,52.824c-1.293,0 -2.386,-0.273 -3.278,-0.822c-0.893,-0.55 -1.559,-1.279 -2,-2.186c-0.439,-0.909 -0.658,-1.901 -0.658,-2.977c0,-1.077 0.231,-2.064 0.695,-2.96c0.465,-0.897 1.158,-1.614 2.079,-2.152c0.922,-0.537 2.046,-0.806 3.373,-0.806c0.799,0 1.55,0.129 2.254,0.386c0.705,0.257 1.293,0.621 1.762,1.093l-0.651,0.841c-0.377,-0.393 -0.87,-0.706 -1.482,-0.941c-0.61,-0.235 -1.238,-0.353 -1.883,-0.353c-1.011,0 -1.874,0.214 -2.591,0.64c-0.715,0.425 -1.258,1.011 -1.629,1.756c-0.37,0.744 -0.555,1.582 -0.555,2.512c0,0.954 0.176,1.804 0.528,2.549c0.354,0.744 0.871,1.333 1.552,1.766c0.681,0.431 1.509,0.647 2.484,0.647c1.48,0 2.76,-0.578 3.84,-1.733l0.598,0.825c-0.528,0.559 -1.168,1.018 -1.92,1.377c-0.751,0.359 -1.59,0.538 -2.518,0.538Z" style="fill:#454545;fill-rule:nonzero;"/><path d="M242.976,51.563l0,1.01l-7.221,0l0,-11.435l6.868,0l0,1.01l-5.496,0l0,3.866l4.791,0l0,1.01l-4.791,0l0,4.539l5.849,0Z" style="fill:#454545;fill-rule:nonzero;"/><path d="M254.584,51.563l0,1.01l-7.221,0l0,-11.435l1.372,0l0,10.425l5.849,0Z" style="fill:#454545;fill-rule:nonzero;"/><path d="M265.745,51.563l0,1.01l-7.222,0l0,-11.435l6.869,0l0,1.01l-5.496,0l0,3.866l4.791,0l0,1.01l-4.791,0l0,4.539l5.849,0Z" style="fill:#454545;fill-rule:nonzero;"/><path d="M273.74,47.394l-2.236,0l0,5.179l-1.373,0l0,-11.435l3.893,0c1.302,0 2.3,0.281 2.992,0.841c0.694,0.561 1.041,1.312 1.041,2.253c0,0.818 -0.244,1.489 -0.731,2.011c-0.488,0.521 -1.201,0.854 -2.14,1.001l3.999,5.329l-1.585,0l-3.86,-5.179Zm-2.236,-1.01l2.52,0c1.772,0 2.658,-0.705 2.658,-2.117c0,-0.662 -0.229,-1.181 -0.688,-1.555c-0.457,-0.376 -1.113,-0.564 -1.97,-0.564l-2.52,0l0,4.236Z" style="fill:#454545;fill-rule:nonzero;"/><path d="M289.364,48.873l-4.932,0l-1.445,3.7l-1.356,0l4.651,-11.585l1.249,0l4.668,11.585l-1.39,0l-1.445,-3.7Zm-0.405,-1.008l-2.062,-5.28l-2.077,5.28l4.139,0Z" style="fill:#454545;fill-rule:nonzero;"/><path d="M304.224,42.148l-4.139,0l0,10.425l-1.376,0l0,-10.425l-4.173,0l0,-1.01l9.688,0l0,1.01Z" style="fill:#454545;fill-rule:nonzero;"/><path d="M315.445,51.563l0,1.01l-7.222,0l0,-11.435l6.869,0l0,1.01l-5.496,0l0,3.866l4.791,0l0,1.01l-4.791,0l0,4.539l5.849,0Z" style="fill:#454545;fill-rule:nonzero;"/><path d="M323.899,41.138c1.221,0 2.264,0.247 3.128,0.742c0.863,0.493 1.511,1.171 1.946,2.033c0.434,0.864 0.651,1.839 0.651,2.926c0,1.12 -0.217,2.112 -0.651,2.977c-0.435,0.863 -1.081,1.538 -1.939,2.026c-0.857,0.487 -1.903,0.731 -3.135,0.731l-4.068,0l0,-11.435l4.068,0Zm0,10.425c1.386,0 2.461,-0.423 3.224,-1.269c0.763,-0.846 1.145,-1.992 1.145,-3.439c0,-1.423 -0.382,-2.563 -1.145,-3.42c-0.763,-0.858 -1.838,-1.287 -3.224,-1.287l-2.695,0l0,9.415l2.695,0Z" style="fill:#454545;fill-rule:nonzero;"/><path d="M74.68,13.807c0,0.591 0.316,1.055 0.949,1.394c0.635,0.337 1.629,0.702 2.985,1.095c1.62,0.507 2.954,1 4,1.479c1.047,0.478 1.961,1.222 2.74,2.235c0.781,1.012 1.172,2.335 1.172,3.968c0,5.232 -3.566,7.848 -10.698,7.848c-1.179,0 -2.615,-0.099 -4.31,-0.296c-1.694,-0.197 -3.234,-0.451 -4.619,-0.761c0.058,-0.589 0.183,-1.454 0.375,-2.592c0.192,-1.14 0.376,-1.991 0.552,-2.554c1.032,0.14 2.586,0.309 4.663,0.506c2.078,0.198 3.649,0.296 4.709,0.296c0.62,0 0.988,-0.042 1.106,-0.127c0.178,-0.112 0.317,-0.302 0.419,-0.569c0.103,-0.268 0.155,-0.5 0.155,-0.698c0,-0.562 -0.28,-0.991 -0.84,-1.287c-0.561,-0.296 -1.518,-0.654 -2.874,-1.077c-1.621,-0.477 -2.962,-0.969 -4.023,-1.474c-1.061,-0.507 -1.989,-1.295 -2.785,-2.364c-0.795,-1.069 -1.193,-2.476 -1.193,-4.22c0,-1.239 0.294,-2.455 0.884,-3.651c0.59,-1.196 1.194,-2.004 1.813,-2.427c0.471,-0.309 1.443,-0.604 2.917,-0.885c1.473,-0.282 2.859,-0.423 4.157,-0.423c3.3,0 5.997,0.296 8.089,0.888c-0.03,0.562 -0.126,1.335 -0.289,2.32c-0.161,0.984 -0.33,1.885 -0.505,2.701l-1.017,-0.044c-3.832,-0.252 -6.278,-0.379 -7.338,-0.379c-0.443,0 -0.694,0.014 -0.753,0.042c-0.118,0.057 -0.222,0.184 -0.31,0.381c-0.087,0.198 -0.131,0.423 -0.131,0.675Z" style="fill:#454545;fill-rule:nonzero;"/><rect x="90.267" y="7.309" width="7.958" height="24.052" style="fill:#454545;"/><path d="M135.148,31.361l-7.428,0l-0.573,-13.251c-0.089,-2.616 -0.193,-4.599 -0.31,-5.948l-0.133,0c-0.354,1.069 -0.767,2.728 -1.238,4.978l-0.22,1.056l-3.05,13.165l-7.428,0l-2.564,-11.857l-0.44,-2.11c-0.62,-2.616 -1.048,-4.36 -1.284,-5.232l-0.133,0c-0.118,1.406 -0.221,3.699 -0.31,6.877c-0.029,0.198 -0.043,0.507 -0.043,0.929l-0.397,11.393l-7.471,0l1.06,-24.052l12.642,0l2.167,10.38l0.53,2.785c0.236,-0.872 0.457,-1.842 0.664,-2.912l2.033,-10.253l12.909,0l1.017,24.052Z" style="fill:#454545;fill-rule:nonzero;"/><path d="M149.173,7.182c2.387,0 4.405,0.211 6.055,0.633c1.651,0.422 2.97,1.231 3.956,2.426c0.988,1.196 1.482,2.905 1.482,5.126c0,0.986 -0.155,1.993 -0.465,3.02c-0.309,1.026 -0.691,1.92 -1.148,2.679c-0.456,0.759 -0.862,1.252 -1.215,1.476c-0.413,0.281 -1.328,0.499 -2.743,0.654c-1.414,0.155 -3.079,0.232 -4.995,0.232c-0.677,0 -1.723,-0.028 -3.137,-0.084l0,8.017l-7.958,0l0,-24.052c3.094,-0.085 6.484,-0.127 10.168,-0.127Zm3.315,10.845c0.295,-0.366 0.443,-1.098 0.443,-2.196c0,-1.433 -0.317,-2.446 -0.952,-3.036c-0.633,-0.592 -1.73,-0.887 -3.292,-0.887c-0.532,0 -1.106,0.042 -1.724,0.127l0,6.412c0.294,0.03 0.868,0.044 1.724,0.044c2.269,0 3.536,-0.155 3.801,-0.464Z" style="fill:#454545;fill-rule:nonzero;"/><path d="M163.436,7.309l7.958,0l0,18.483l10.301,0l0,5.569l-18.259,0l0,-24.052Z" style="fill:#454545;fill-rule:nonzero;"/><path d="M184.372,7.309l18.346,0l0,5.063l-10.39,0l0,4.388l8.754,0l0,4.558l-8.754,0l0,4.894l10.344,0l0,5.149l-18.3,0l0,-24.052Z" style="fill:#454545;fill-rule:nonzero;"/><path d="M219.99,13.807c0,0.591 0.316,1.055 0.949,1.394c0.635,0.337 1.63,0.702 2.985,1.095c1.621,0.507 2.954,1 4,1.479c1.047,0.478 1.961,1.222 2.741,2.235c0.78,1.012 1.171,2.335 1.171,3.968c0,5.232 -3.566,7.848 -10.698,7.848c-1.179,0 -2.615,-0.099 -4.309,-0.296c-1.695,-0.197 -3.235,-0.451 -4.62,-0.761c0.058,-0.589 0.183,-1.454 0.375,-2.592c0.192,-1.14 0.376,-1.991 0.553,-2.554c1.031,0.14 2.585,0.309 4.662,0.506c2.079,0.198 3.649,0.296 4.709,0.296c0.62,0 0.989,-0.042 1.107,-0.127c0.177,-0.112 0.317,-0.302 0.418,-0.569c0.103,-0.268 0.155,-0.5 0.155,-0.698c0,-0.562 -0.28,-0.991 -0.84,-1.287c-0.56,-0.296 -1.518,-0.654 -2.873,-1.077c-1.621,-0.477 -2.963,-0.969 -4.024,-1.474c-1.061,-0.507 -1.989,-1.295 -2.784,-2.364c-0.796,-1.069 -1.194,-2.476 -1.194,-4.22c0,-1.239 0.294,-2.455 0.884,-3.651c0.591,-1.196 1.194,-2.004 1.813,-2.427c0.471,-0.309 1.444,-0.604 2.917,-0.885c1.473,-0.282 2.86,-0.423 4.157,-0.423c3.301,0 5.997,0.296 8.089,0.888c-0.029,0.562 -0.126,1.335 -0.288,2.32c-0.162,0.984 -0.331,1.885 -0.506,2.701l-1.017,-0.044c-3.832,-0.252 -6.278,-0.379 -7.338,-0.379c-0.443,0 -0.694,0.014 -0.753,0.042c-0.118,0.057 -0.222,0.184 -0.31,0.381c-0.087,0.198 -0.131,0.423 -0.131,0.675Z" style="fill:#454545;fill-rule:nonzero;"/><path d="M248.234,31.361l-7.958,0l0,-18.779l-7.117,0l0,-5.273l22.193,0l0,5.273l-7.118,0l0,18.779Z" style="fill:#454545;fill-rule:nonzero;"/><path d="M269.753,31.909c-4.391,0 -7.684,-0.992 -9.881,-2.974c-2.195,-1.983 -3.292,-5.169 -3.292,-9.558c0,-4.305 1.208,-7.442 3.624,-9.411c2.416,-1.969 5.614,-2.953 9.595,-2.953c8.368,0 12.552,3.981 12.552,11.943c0,4.023 -1.024,7.187 -3.072,9.493c-2.048,2.307 -5.224,3.46 -9.526,3.46Zm-0.177,-4.978c0.826,0 1.518,-0.133 2.077,-0.4c0.56,-0.268 1.002,-0.739 1.327,-1.414c0.619,-1.154 0.929,-3.039 0.929,-5.655c0,-2.561 -0.31,-4.417 -0.929,-5.572c-0.619,-1.181 -1.753,-1.8 -3.404,-1.855c-0.619,0 -1.259,0.063 -1.922,0.189c-0.664,0.127 -1.084,0.302 -1.259,0.527c-0.356,0.395 -0.629,1.232 -0.821,2.512c-0.191,1.28 -0.286,2.68 -0.286,4.199c0,2.363 0.236,4.094 0.707,5.19c0.325,0.815 0.781,1.4 1.37,1.752c0.589,0.351 1.326,0.527 2.211,0.527Z" style="fill:#454545;fill-rule:nonzero;"/><path d="M308.813,31.361l-8.354,0l-1.504,-6.075c-0.06,-0.227 -0.156,-0.614 -0.288,-1.163c-0.133,-0.548 -0.287,-0.956 -0.465,-1.222c-0.176,-0.268 -0.426,-0.444 -0.75,-0.527c-0.825,0.028 -2.033,0.041 -3.625,0.041l0,8.946l-7.957,0l0,-23.842c3.565,-0.252 6.895,-0.379 9.991,-0.379c2.799,0 5.067,0.218 6.806,0.654c1.739,0.436 3.043,1.182 3.912,2.237c0.87,1.054 1.305,2.495 1.305,4.324c0,1.716 -0.413,3.059 -1.237,4.03c-0.825,0.971 -2.152,1.555 -3.978,1.752l0,0.252c1.031,0.085 1.893,0.401 2.586,0.949c0.692,0.549 1.156,1.245 1.392,2.09l2.166,7.933Zm-14.986,-13.713c0.265,0.028 0.781,0.041 1.547,0.041c2.27,0 3.596,-0.183 3.978,-0.549c0.354,-0.338 0.53,-1.125 0.53,-2.362c0,-1.154 -0.317,-1.942 -0.951,-2.364c-0.633,-0.422 -1.672,-0.634 -3.116,-0.634c-0.323,0 -0.985,0.029 -1.988,0.086l0,5.782Z" style="fill:#454545;fill-rule:nonzero;"/><path d="M311.293,7.309l18.346,0l0,5.063l-10.391,0l0,4.388l8.754,0l0,4.558l-8.754,0l0,4.894l10.345,0l0,5.149l-18.3,0l0,-24.052Z" style="fill:#454545;fill-rule:nonzero;"/><path d="M34.53,21.395c0,-1.802 -1.465,-3.267 -3.271,-3.267c-1.807,0 -3.271,1.465 -3.271,3.267c0,1.809 1.464,3.276 3.271,3.276c1.806,0 3.271,-1.467 3.271,-3.276" style="fill:#4a4a4b;fill-rule:nonzero;"/><path d="M31.672,4.418c0.529,0.074 1.041,0.29 1.448,0.627c1.123,0.92 1.456,2.616 1.552,3.989c0.133,1.925 0.296,3.77 1.809,5.157c1.02,0.942 2.198,1.301 3.471,1.758c0.875,0.313 1.725,0.764 2.317,1.503c1.483,1.835 1.829,5.395 -0.504,6.728c-1.968,1.132 -3.391,-0.43 -4.389,-1.993c-1.01,-1.588 -1.725,-3.284 -3.266,-4.471c-1.011,-0.785 -2.44,-1.104 -3.698,-0.864c-2.445,0.461 -3.984,2.882 -4.945,4.97c-0.406,0.877 -0.903,1.741 -1.741,2.277c-1.683,1.069 -3.382,0.188 -4.185,-1.466c-0.347,-0.715 -0.413,-1.542 -0.356,-2.32c0.092,-1.241 0.65,-2.436 1.559,-3.289c0.986,-0.922 2.265,-1.186 3.471,-1.701c0.678,-0.291 1.445,-0.685 1.99,-1.193c1.754,-1.636 1.348,-4.077 1.868,-6.192c0.279,-1.126 0.719,-2.429 1.716,-3.128c0.542,-0.375 1.225,-0.491 1.883,-0.392" style="fill:#79ab44;fill-rule:nonzero;"/><path d="M31.672,4.418c0.529,0.074 1.041,0.29 1.448,0.627c1.123,0.92 1.456,2.616 1.552,3.989c0.133,1.925 0.296,3.77 1.809,5.157c1.02,0.942 2.198,1.301 3.471,1.758c0.875,0.313 1.725,0.764 2.317,1.503c1.483,1.835 1.829,5.395 -0.504,6.728c-1.968,1.132 -3.391,-0.43 -4.389,-1.993c-1.01,-1.588 -1.725,-3.284 -3.266,-4.471c-1.011,-0.785 -2.44,-1.104 -3.698,-0.864c-2.445,0.461 -3.984,2.882 -4.945,4.97c-0.406,0.877 -0.903,1.741 -1.741,2.277c-1.683,1.069 -3.382,0.188 -4.185,-1.466c-0.347,-0.715 -0.413,-1.542 -0.356,-2.32c0.092,-1.241 0.65,-2.436 1.558,-3.289c0.987,-0.922 2.266,-1.186 3.472,-1.701c0.678,-0.291 1.445,-0.685 1.99,-1.193c1.754,-1.636 1.347,-4.077 1.868,-6.192c0.279,-1.126 0.719,-2.429 1.716,-3.128c0.542,-0.375 1.225,-0.491 1.883,-0.392" style="fill:none;stroke:#4a4a4b;stroke-width:0.27px;"/><path d="M37.929,38.471c1.57,0.9 3.567,0.358 4.466,-1.213c0.899,-1.57 0.354,-3.564 -1.214,-4.465c-1.564,-0.899 -3.564,-0.355 -4.463,1.215c-0.897,1.567 -0.356,3.564 1.211,4.463" style="fill:#4a4a4b;fill-rule:nonzero;"/><path d="M54.085,44.437c-0.331,0.419 -0.772,0.758 -1.266,0.94c-1.353,0.517 -2.991,-0.036 -4.231,-0.632c-1.734,-0.845 -3.423,-1.621 -5.376,-1c-1.323,0.419 -2.22,1.263 -3.249,2.139c-0.709,0.605 -1.523,1.114 -2.456,1.264c-2.328,0.37 -5.589,-1.097 -5.589,-3.779c0,-2.271 2.06,-2.73 3.912,-2.818c1.88,-0.088 3.707,0.137 5.503,-0.611c1.184,-0.494 2.172,-1.567 2.59,-2.782c0.813,-2.347 -0.518,-4.889 -1.853,-6.759c-0.563,-0.791 -1.066,-1.653 -1.113,-2.644c-0.087,-1.996 1.518,-3.03 3.358,-2.899c0.79,0.057 1.533,0.405 2.186,0.839c1.036,0.701 1.792,1.774 2.077,2.988c0.31,1.317 -0.093,2.557 -0.246,3.858c-0.085,0.736 -0.127,1.598 0.044,2.323c0.544,2.331 2.87,3.194 4.44,4.693c0.842,0.805 1.756,1.837 1.86,3.045c0.06,0.656 -0.179,1.311 -0.591,1.835" style="fill:#79ab44;fill-rule:nonzero;"/><path d="M54.085,44.437c-0.331,0.419 -0.772,0.758 -1.266,0.94c-1.353,0.517 -2.991,-0.036 -4.231,-0.632c-1.734,-0.845 -3.423,-1.621 -5.376,-1c-1.323,0.419 -2.22,1.263 -3.249,2.139c-0.709,0.605 -1.523,1.114 -2.456,1.264c-2.328,0.37 -5.589,-1.097 -5.589,-3.779c0,-2.271 2.06,-2.73 3.912,-2.818c1.88,-0.088 3.706,0.137 5.503,-0.611c1.184,-0.494 2.172,-1.567 2.59,-2.782c0.813,-2.347 -0.518,-4.889 -1.853,-6.759c-0.563,-0.791 -1.066,-1.653 -1.113,-2.644c-0.087,-1.996 1.518,-3.03 3.358,-2.899c0.79,0.057 1.533,0.405 2.186,0.839c1.036,0.701 1.792,1.774 2.077,2.988c0.31,1.317 -0.093,2.557 -0.246,3.858c-0.085,0.736 -0.127,1.598 0.044,2.323c0.544,2.331 2.87,3.194 4.44,4.693c0.842,0.805 1.756,1.837 1.86,3.045c0.06,0.656 -0.179,1.311 -0.591,1.835" style="fill:none;stroke:#4a4a4b;stroke-width:0.27px;"/><path d="M21.426,32.934c-1.558,0.915 -2.083,2.916 -1.168,4.476c0.914,1.56 2.917,2.08 4.476,1.169c1.559,-0.914 2.082,-2.917 1.169,-4.475c-0.914,-1.562 -2.918,-2.083 -4.477,-1.17" style="fill:#4a4a4b;fill-rule:nonzero;"/><path d="M8.221,43.987c-0.201,-0.496 -0.272,-1.047 -0.192,-1.566c0.226,-1.432 1.518,-2.579 2.656,-3.353c1.595,-1.091 3.106,-2.168 3.539,-4.169c0.293,-1.358 0.01,-2.557 -0.24,-3.884c-0.173,-0.917 -0.21,-1.878 0.123,-2.76c0.837,-2.209 3.731,-4.305 6.061,-2.971c1.969,1.127 1.344,3.145 0.498,4.797c-0.862,1.676 -1.96,3.148 -2.206,5.079c-0.161,1.27 0.284,2.66 1.126,3.628c1.633,1.872 4.5,1.978 6.787,1.754c0.963,-0.096 1.962,-0.104 2.846,0.35c1.775,0.914 1.873,2.818 0.85,4.354c-0.442,0.66 -1.115,1.13 -1.819,1.478c-1.121,0.545 -2.428,0.67 -3.622,0.313c-1.3,-0.383 -2.174,-1.353 -3.23,-2.13c-0.592,-0.44 -1.319,-0.902 -2.033,-1.115c-2.299,-0.688 -4.202,0.901 -6.286,1.519c-1.116,0.328 -2.459,0.61 -3.564,0.101c-0.599,-0.28 -1.049,-0.808 -1.294,-1.425" style="fill:#79ab44;fill-rule:nonzero;stroke:#4a4a4b;stroke-width:0.27px;"/><path d="M55.401,37.754l-0.691,-0.181l-0.925,-0.234l-0.692,-0.182l0.179,-0.694c1.529,-5.923 0.723,-12.04 -2.272,-17.215c-2.315,-4.003 -5.739,-7.144 -9.929,-9.119l-0.256,0.626l-0.438,1.07l-0.76,-0.875l-2.54,-2.9l-0.876,-0.997l1.32,-0.18l3.944,-0.529l1.228,-0.169l-0.471,1.149l-0.243,0.598c4.679,2.179 8.503,5.672 11.087,10.13c3.309,5.72 4.204,12.47 2.514,19.008l-0.179,0.694Z" style="fill:#4a4a4b;fill-rule:nonzero;"/><path d="M8.459,38.109l-0.809,-1.059l-2.418,-3.159l-0.753,-0.986l1.228,-0.16l0.641,-0.085c-0.433,-5.144 0.697,-10.199 3.291,-14.652c3.317,-5.714 8.734,-9.84 15.249,-11.626l0.689,-0.184l0.187,0.685l0.253,0.92l0.189,0.692l-0.688,0.19c-5.906,1.615 -10.814,5.35 -13.818,10.518c-2.326,3.998 -3.35,8.528 -2.986,13.147l0.668,-0.083l1.148,-0.15l-0.377,1.089l-1.259,3.643l-0.435,1.26Z" style="fill:#4a4a4b;fill-rule:nonzero;"/><path d="M31.369,55.616c-6.605,0.001 -12.895,-2.605 -17.71,-7.344l-0.509,-0.501l0.502,-0.509l0.668,-0.68l0.502,-0.509l0.51,0.503c4.364,4.289 10.061,6.656 16.037,6.656c4.627,0 9.06,-1.387 12.87,-4.024l-0.412,-0.538l-0.707,-0.916l1.132,-0.22l3.785,-0.746l1.305,-0.257l-0.506,1.231l-1.519,3.682l-0.47,1.142l-0.756,-0.979l-0.396,-0.512c-4.232,2.96 -9.168,4.521 -14.326,4.521" style="fill:#4a4a4b;fill-rule:nonzero;"/></svg>